<svg aria-roledescription="er" role="graphics-document document" viewBox="-1.2536888122558594 0 177.30020141601562 940" style="max-width: 177.3px; background-color: white;" xmlns:xlink="http://www.w3.org/1999/xlink" xmlns="http://www.w3.org/2000/svg" width="100%" id="my-svg"><style>#my-svg{font-family:"trebuchet ms",verdana,arial,sans-serif;font-size:16px;fill:#000000;}#my-svg .error-icon{fill:#552222;}#my-svg .error-text{fill:#552222;stroke:#552222;}#my-svg .edge-thickness-normal{stroke-width:2px;}#my-svg .edge-thickness-thick{stroke-width:3.5px;}#my-svg .edge-pattern-solid{stroke-dasharray:0;}#my-svg .edge-pattern-dashed{stroke-dasharray:3;}#my-svg .edge-pattern-dotted{stroke-dasharray:2;}#my-svg .marker{fill:#000000;stroke:#000000;}#my-svg .marker.cross{stroke:#000000;}#my-svg svg{font-family:"trebuchet ms",verdana,arial,sans-serif;font-size:16px;}#my-svg .entityBox{fill:#cde498;stroke:#13540c;}#my-svg .attributeBoxOdd{fill:#ffffff;stroke:#13540c;}#my-svg .attributeBoxEven{fill:#f2f2f2;stroke:#13540c;}#my-svg .relationshipLabelBox{fill:hsl(78.1578947368, 58.4615384615%, 84.5098039216%);opacity:0.7;background-color:hsl(78.1578947368, 58.4615384615%, 84.5098039216%);}#my-svg .relationshipLabelBox rect{opacity:0.5;}#my-svg .relationshipLine{stroke:#000000;}#my-svg .entityTitleText{text-anchor:middle;font-size:18px;fill:#000000;}#my-svg #MD_PARENT_START{fill:#f5f5f5!important;stroke:#000000!important;stroke-width:1;}#my-svg #MD_PARENT_END{fill:#f5f5f5!important;stroke:#000000!important;stroke-width:1;}#my-svg :root{--mermaid-font-family:"trebuchet ms",verdana,arial,sans-serif;}</style><g/><defs><marker orient="auto" markerHeight="240" markerWidth="190" refY="7" refX="0" id="MD_PARENT_START"><path d="M 18,7 L9,13 L1,7 L9,1 Z"/></marker></defs><defs><marker orient="auto" markerHeight="28" markerWidth="20" refY="7" refX="19" id="MD_PARENT_END"><path d="M 18,7 L9,13 L1,7 L9,1 Z"/></marker></defs><defs><marker orient="auto" markerHeight="18" markerWidth="18" refY="9" refX="0" id="ONLY_ONE_START"><path d="M9,0 L9,18 M15,0 L15,18" fill="none" stroke="gray"/></marker></defs><defs><marker orient="auto" markerHeight="18" markerWidth="18" refY="9" refX="18" id="ONLY_ONE_END"><path d="M3,0 L3,18 M9,0 L9,18" fill="none" stroke="gray"/></marker></defs><defs><marker orient="auto" markerHeight="18" markerWidth="30" refY="9" refX="0" id="ZERO_OR_ONE_START"><circle r="6" cy="9" cx="21" fill="white" stroke="gray"/><path d="M9,0 L9,18" fill="none" stroke="gray"/></marker></defs><defs><marker orient="auto" markerHeight="18" markerWidth="30" refY="9" refX="30" id="ZERO_OR_ONE_END"><circle r="6" cy="9" cx="9" fill="white" stroke="gray"/><path d="M21,0 L21,18" fill="none" stroke="gray"/></marker></defs><defs><marker orient="auto" markerHeight="36" markerWidth="45" refY="18" refX="18" id="ONE_OR_MORE_START"><path d="M0,18 Q 18,0 36,18 Q 18,36 0,18 M42,9 L42,27" fill="none" stroke="gray"/></marker></defs><defs><marker orient="auto" markerHeight="36" markerWidth="45" refY="18" refX="27" id="ONE_OR_MORE_END"><path d="M3,9 L3,27 M9,18 Q27,0 45,18 Q27,36 9,18" fill="none" stroke="gray"/></marker></defs><defs><marker orient="auto" markerHeight="36" markerWidth="57" refY="18" refX="18" id="ZERO_OR_MORE_START"><circle r="6" cy="18" cx="48" fill="white" stroke="gray"/><path d="M0,18 Q18,0 36,18 Q18,36 0,18" fill="none" stroke="gray"/></marker></defs><defs><marker orient="auto" markerHeight="36" markerWidth="57" refY="18" refX="39" id="ZERO_OR_MORE_END"><circle r="6" cy="18" cx="9" fill="white" stroke="gray"/><path d="M21,18 Q39,0 57,18 Q39,36 21,18" fill="none" stroke="gray"/></marker></defs><path style="stroke: gray; fill: none;" marker-start="url(#ZERO_OR_MORE_START)" marker-end="url(#ZERO_OR_MORE_END)" d="M53.56437683105469,170L50.23104349772135,178.33333333333334C46.89771016438802,186.66666666666666,40.23104349772135,203.33333333333334,41.91779048567316,220C43.604537473624966,236.66666666666666,53.64469811619525,253.33333333333334,58.664778437480386,261.6666666666667L63.68485875876553,270" class="er relationshipLine"/><path style="stroke: gray; fill: none;" marker-start="url(#ZERO_OR_MORE_START)" marker-end="url(#ZERO_OR_MORE_END)" d="M113.56437683105469,770L116.89771016438802,761.6666666666666C120.23104349772136,753.3333333333334,126.89771016438802,736.6666666666666,127.73603351768143,720C128.57435687097484,703.3333333333334,123.584336910895,686.6666666666666,121.08932693085508,678.3333333333334L118.59431695081517,670" class="er relationshipLine"/><path style="stroke: gray; fill: none;" marker-start="url(#ZERO_OR_MORE_START)" marker-end="url(#ZERO_OR_MORE_END)" d="M118.59431695081517,436L121.08932693085508,427.6666666666667C123.584336910895,419.3333333333333,128.57435687097484,402.6666666666667,126.04928652972963,386C123.5242161884844,369.3333333333333,113.48405554591413,352.6666666666667,108.46397522462898,344.3333333333333L103.44389490334385,336" class="er relationshipLine"/><path style="stroke: gray; fill: none;" marker-start="url(#ZERO_OR_ONE_START)" marker-end="url(#ONLY_ONE_END)" d="M48.534436711294205,670L46.03942673125429,678.3333333333334C43.544416751214364,686.6666666666666,38.55439679113453,703.3333333333334,39.39272014442794,720C40.23104349772135,736.6666666666666,46.89771016438802,753.3333333333334,50.23104349772135,761.6666666666666L53.56437683105469,770" class="er relationshipLine"/><path style="stroke: gray; fill: none;" marker-start="url(#ZERO_OR_ONE_START)" marker-end="url(#ONLY_ONE_END)" d="M103.44389490334385,270L108.46397522462898,261.6666666666667C113.48405554591413,253.33333333333334,123.5242161884844,236.66666666666666,125.21096317643621,220C126.89771016438802,203.33333333333334,120.23104349772136,186.66666666666666,116.89771016438802,178.33333333333334L113.56437683105469,170" class="er relationshipLine"/><path style="stroke: gray; fill: none;" marker-start="url(#ZERO_OR_ONE_START)" marker-end="url(#ONLY_ONE_END)" d="M63.68485875876553,336L58.664778437480386,344.3333333333333C53.64469811619525,352.6666666666667,43.604537473624966,369.3333333333333,41.07946713237975,386C38.55439679113453,402.6666666666667,43.544416751214364,419.3333333333333,46.03942673125429,427.6666666666667L48.534436711294205,436" class="er relationshipLine"/><g transform="translate(21.82275390625,20 )" id="entity-Student-8f7f7a56-d9f8-57b5-bb12-4f40575e65f5"><rect height="150" width="123.48324584960938" y="0" x="0" class="er entityBox"/><text style="dominant-baseline: middle; text-anchor: middle; font-size: 12px;" transform="translate(61.74162292480469,12)" y="0" x="0" id="text-entity-Student-8f7f7a56-d9f8-57b5-bb12-4f40575e65f5" class="er entityLabel">Student</text><rect height="21" width="54.113128662109375" y="24" x="0" class="er attributeBoxOdd"/><text style="dominant-baseline: middle; font-size: 10.2px;" transform="translate(5,34.5)" y="0" x="0" id="text-entity-Student-8f7f7a56-d9f8-57b5-bb12-4f40575e65f5-attr-1-type" class="er entityLabel">Int</text><rect height="21" width="55.6357421875" y="24" x="54.113128662109375" class="er attributeBoxOdd"/><text style="dominant-baseline: middle; font-size: 10.2px;" transform="translate(59.113128662109375,34.5)" y="0" x="0" id="text-entity-Student-8f7f7a56-d9f8-57b5-bb12-4f40575e65f5-attr-1-name" class="er entityLabel">id</text><rect height="21" width="13.734375" y="24" x="109.74887084960938" class="er attributeBoxOdd"/><text style="dominant-baseline: middle; font-size: 10.2px;" transform="translate(114.74887084960938,34.5)" y="0" x="0" id="text-entity-Student-8f7f7a56-d9f8-57b5-bb12-4f40575e65f5-attr-1-comment" class="er entityLabel">🗝️</text><rect height="21" width="54.113128662109375" y="45" x="0" class="er attributeBoxEven"/><text style="dominant-baseline: middle; font-size: 10.2px;" transform="translate(5,55.5)" y="0" x="0" id="text-entity-Student-8f7f7a56-d9f8-57b5-bb12-4f40575e65f5-attr-2-type" class="er entityLabel">String</text><rect height="21" width="55.6357421875" y="45" x="54.113128662109375" class="er attributeBoxEven"/><text style="dominant-baseline: middle; font-size: 10.2px;" transform="translate(59.113128662109375,55.5)" y="0" x="0" id="text-entity-Student-8f7f7a56-d9f8-57b5-bb12-4f40575e65f5-attr-2-name" class="er entityLabel">firstname</text><rect height="21" width="13.734375" y="45" x="109.74887084960938" class="er attributeBoxEven"/><text style="dominant-baseline: middle; font-size: 10.2px;" transform="translate(114.74887084960938,55.5)" y="0" x="0" id="text-entity-Student-8f7f7a56-d9f8-57b5-bb12-4f40575e65f5-attr-2-comment" class="er entityLabel"/><rect height="21" width="54.113128662109375" y="66" x="0" class="er attributeBoxOdd"/><text style="dominant-baseline: middle; font-size: 10.2px;" transform="translate(5,76.5)" y="0" x="0" id="text-entity-Student-8f7f7a56-d9f8-57b5-bb12-4f40575e65f5-attr-3-type" class="er entityLabel">String</text><rect height="21" width="55.6357421875" y="66" x="54.113128662109375" class="er attributeBoxOdd"/><text style="dominant-baseline: middle; font-size: 10.2px;" transform="translate(59.113128662109375,76.5)" y="0" x="0" id="text-entity-Student-8f7f7a56-d9f8-57b5-bb12-4f40575e65f5-attr-3-name" class="er entityLabel">lastname</text><rect height="21" width="13.734375" y="66" x="109.74887084960938" class="er attributeBoxOdd"/><text style="dominant-baseline: middle; font-size: 10.2px;" transform="translate(114.74887084960938,76.5)" y="0" x="0" id="text-entity-Student-8f7f7a56-d9f8-57b5-bb12-4f40575e65f5-attr-3-comment" class="er entityLabel"/><rect height="21" width="54.113128662109375" y="87" x="0" class="er attributeBoxEven"/><text style="dominant-baseline: middle; font-size: 10.2px;" transform="translate(5,97.5)" y="0" x="0" id="text-entity-Student-8f7f7a56-d9f8-57b5-bb12-4f40575e65f5-attr-4-type" class="er entityLabel">String</text><rect height="21" width="55.6357421875" y="87" x="54.113128662109375" class="er attributeBoxEven"/><text style="dominant-baseline: middle; font-size: 10.2px;" transform="translate(59.113128662109375,97.5)" y="0" x="0" id="text-entity-Student-8f7f7a56-d9f8-57b5-bb12-4f40575e65f5-attr-4-name" class="er entityLabel">username</text><rect height="21" width="13.734375" y="87" x="109.74887084960938" class="er attributeBoxEven"/><text style="dominant-baseline: middle; font-size: 10.2px;" transform="translate(114.74887084960938,97.5)" y="0" x="0" id="text-entity-Student-8f7f7a56-d9f8-57b5-bb12-4f40575e65f5-attr-4-comment" class="er entityLabel"/><rect height="21" width="54.113128662109375" y="108" x="0" class="er attributeBoxOdd"/><text style="dominant-baseline: middle; font-size: 10.2px;" transform="translate(5,118.5)" y="0" x="0" id="text-entity-Student-8f7f7a56-d9f8-57b5-bb12-4f40575e65f5-attr-5-type" class="er entityLabel">String</text><rect height="21" width="55.6357421875" y="108" x="54.113128662109375" class="er attributeBoxOdd"/><text style="dominant-baseline: middle; font-size: 10.2px;" transform="translate(59.113128662109375,118.5)" y="0" x="0" id="text-entity-Student-8f7f7a56-d9f8-57b5-bb12-4f40575e65f5-attr-5-name" class="er entityLabel">password</text><rect height="21" width="13.734375" y="108" x="109.74887084960938" class="er attributeBoxOdd"/><text style="dominant-baseline: middle; font-size: 10.2px;" transform="translate(114.74887084960938,118.5)" y="0" x="0" id="text-entity-Student-8f7f7a56-d9f8-57b5-bb12-4f40575e65f5-attr-5-comment" class="er entityLabel"/><rect height="21" width="54.113128662109375" y="129" x="0" class="er attributeBoxEven"/><text style="dominant-baseline: middle; font-size: 10.2px;" transform="translate(5,139.5)" y="0" x="0" id="text-entity-Student-8f7f7a56-d9f8-57b5-bb12-4f40575e65f5-attr-6-type" class="er entityLabel">DateTime</text><rect height="21" width="55.6357421875" y="129" x="54.113128662109375" class="er attributeBoxEven"/><text style="dominant-baseline: middle; font-size: 10.2px;" transform="translate(59.113128662109375,139.5)" y="0" x="0" id="text-entity-Student-8f7f7a56-d9f8-57b5-bb12-4f40575e65f5-attr-6-name" class="er entityLabel">createdAt</text><rect height="21" width="13.734375" y="129" x="109.74887084960938" class="er attributeBoxEven"/><text style="dominant-baseline: middle; font-size: 10.2px;" transform="translate(114.74887084960938,139.5)" y="0" x="0" id="text-entity-Student-8f7f7a56-d9f8-57b5-bb12-4f40575e65f5-attr-6-comment" class="er entityLabel"/></g><g transform="translate(21.82275390625,770 )" id="entity-Teacher-ed6f2787-ae2d-5cf4-94cc-4a1510120b97"><rect height="150" width="123.48324584960938" y="0" x="0" class="er entityBox"/><text style="dominant-baseline: middle; text-anchor: middle; font-size: 12px;" transform="translate(61.74162292480469,12)" y="0" x="0" id="text-entity-Teacher-ed6f2787-ae2d-5cf4-94cc-4a1510120b97" class="er entityLabel">Teacher</text><rect height="21" width="54.113128662109375" y="24" x="0" class="er attributeBoxOdd"/><text style="dominant-baseline: middle; font-size: 10.2px;" transform="translate(5,34.5)" y="0" x="0" id="text-entity-Teacher-ed6f2787-ae2d-5cf4-94cc-4a1510120b97-attr-1-type" class="er entityLabel">Int</text><rect height="21" width="55.6357421875" y="24" x="54.113128662109375" class="er attributeBoxOdd"/><text style="dominant-baseline: middle; font-size: 10.2px;" transform="translate(59.113128662109375,34.5)" y="0" x="0" id="text-entity-Teacher-ed6f2787-ae2d-5cf4-94cc-4a1510120b97-attr-1-name" class="er entityLabel">id</text><rect height="21" width="13.734375" y="24" x="109.74887084960938" class="er attributeBoxOdd"/><text style="dominant-baseline: middle; font-size: 10.2px;" transform="translate(114.74887084960938,34.5)" y="0" x="0" id="text-entity-Teacher-ed6f2787-ae2d-5cf4-94cc-4a1510120b97-attr-1-comment" class="er entityLabel">🗝️</text><rect height="21" width="54.113128662109375" y="45" x="0" class="er attributeBoxEven"/><text style="dominant-baseline: middle; font-size: 10.2px;" transform="translate(5,55.5)" y="0" x="0" id="text-entity-Teacher-ed6f2787-ae2d-5cf4-94cc-4a1510120b97-attr-2-type" class="er entityLabel">String</text><rect height="21" width="55.6357421875" y="45" x="54.113128662109375" class="er attributeBoxEven"/><text style="dominant-baseline: middle; font-size: 10.2px;" transform="translate(59.113128662109375,55.5)" y="0" x="0" id="text-entity-Teacher-ed6f2787-ae2d-5cf4-94cc-4a1510120b97-attr-2-name" class="er entityLabel">firstname</text><rect height="21" width="13.734375" y="45" x="109.74887084960938" class="er attributeBoxEven"/><text style="dominant-baseline: middle; font-size: 10.2px;" transform="translate(114.74887084960938,55.5)" y="0" x="0" id="text-entity-Teacher-ed6f2787-ae2d-5cf4-94cc-4a1510120b97-attr-2-comment" class="er entityLabel"/><rect height="21" width="54.113128662109375" y="66" x="0" class="er attributeBoxOdd"/><text style="dominant-baseline: middle; font-size: 10.2px;" transform="translate(5,76.5)" y="0" x="0" id="text-entity-Teacher-ed6f2787-ae2d-5cf4-94cc-4a1510120b97-attr-3-type" class="er entityLabel">String</text><rect height="21" width="55.6357421875" y="66" x="54.113128662109375" class="er attributeBoxOdd"/><text style="dominant-baseline: middle; font-size: 10.2px;" transform="translate(59.113128662109375,76.5)" y="0" x="0" id="text-entity-Teacher-ed6f2787-ae2d-5cf4-94cc-4a1510120b97-attr-3-name" class="er entityLabel">lastname</text><rect height="21" width="13.734375" y="66" x="109.74887084960938" class="er attributeBoxOdd"/><text style="dominant-baseline: middle; font-size: 10.2px;" transform="translate(114.74887084960938,76.5)" y="0" x="0" id="text-entity-Teacher-ed6f2787-ae2d-5cf4-94cc-4a1510120b97-attr-3-comment" class="er entityLabel"/><rect height="21" width="54.113128662109375" y="87" x="0" class="er attributeBoxEven"/><text style="dominant-baseline: middle; font-size: 10.2px;" transform="translate(5,97.5)" y="0" x="0" id="text-entity-Teacher-ed6f2787-ae2d-5cf4-94cc-4a1510120b97-attr-4-type" class="er entityLabel">String</text><rect height="21" width="55.6357421875" y="87" x="54.113128662109375" class="er attributeBoxEven"/><text style="dominant-baseline: middle; font-size: 10.2px;" transform="translate(59.113128662109375,97.5)" y="0" x="0" id="text-entity-Teacher-ed6f2787-ae2d-5cf4-94cc-4a1510120b97-attr-4-name" class="er entityLabel">username</text><rect height="21" width="13.734375" y="87" x="109.74887084960938" class="er attributeBoxEven"/><text style="dominant-baseline: middle; font-size: 10.2px;" transform="translate(114.74887084960938,97.5)" y="0" x="0" id="text-entity-Teacher-ed6f2787-ae2d-5cf4-94cc-4a1510120b97-attr-4-comment" class="er entityLabel"/><rect height="21" width="54.113128662109375" y="108" x="0" class="er attributeBoxOdd"/><text style="dominant-baseline: middle; font-size: 10.2px;" transform="translate(5,118.5)" y="0" x="0" id="text-entity-Teacher-ed6f2787-ae2d-5cf4-94cc-4a1510120b97-attr-5-type" class="er entityLabel">String</text><rect height="21" width="55.6357421875" y="108" x="54.113128662109375" class="er attributeBoxOdd"/><text style="dominant-baseline: middle; font-size: 10.2px;" transform="translate(59.113128662109375,118.5)" y="0" x="0" id="text-entity-Teacher-ed6f2787-ae2d-5cf4-94cc-4a1510120b97-attr-5-name" class="er entityLabel">password</text><rect height="21" width="13.734375" y="108" x="109.74887084960938" class="er attributeBoxOdd"/><text style="dominant-baseline: middle; font-size: 10.2px;" transform="translate(114.74887084960938,118.5)" y="0" x="0" id="text-entity-Teacher-ed6f2787-ae2d-5cf4-94cc-4a1510120b97-attr-5-comment" class="er entityLabel"/><rect height="21" width="54.113128662109375" y="129" x="0" class="er attributeBoxEven"/><text style="dominant-baseline: middle; font-size: 10.2px;" transform="translate(5,139.5)" y="0" x="0" id="text-entity-Teacher-ed6f2787-ae2d-5cf4-94cc-4a1510120b97-attr-6-type" class="er entityLabel">DateTime</text><rect height="21" width="55.6357421875" y="129" x="54.113128662109375" class="er attributeBoxEven"/><text style="dominant-baseline: middle; font-size: 10.2px;" transform="translate(59.113128662109375,139.5)" y="0" x="0" id="text-entity-Teacher-ed6f2787-ae2d-5cf4-94cc-4a1510120b97-attr-6-name" class="er entityLabel">createdAt</text><rect height="21" width="13.734375" y="129" x="109.74887084960938" class="er attributeBoxEven"/><text style="dominant-baseline: middle; font-size: 10.2px;" transform="translate(114.74887084960938,139.5)" y="0" x="0" id="text-entity-Teacher-ed6f2787-ae2d-5cf4-94cc-4a1510120b97-attr-6-comment" class="er entityLabel"/></g><g transform="translate(20,436 )" id="entity-Question-489e4f99-55a1-57b9-ae56-53457bd575f3"><rect height="234" width="127.12875366210938" y="0" x="0" class="er entityBox"/><text style="dominant-baseline: middle; text-anchor: middle; font-size: 12px;" transform="translate(63.56437683105469,12)" y="0" x="0" id="text-entity-Question-489e4f99-55a1-57b9-ae56-53457bd575f3" class="er entityLabel">Question</text><rect height="21" width="54.113128662109375" y="24" x="0" class="er attributeBoxOdd"/><text style="dominant-baseline: middle; font-size: 10.2px;" transform="translate(5,34.5)" y="0" x="0" id="text-entity-Question-489e4f99-55a1-57b9-ae56-53457bd575f3-attr-1-type" class="er entityLabel">Int</text><rect height="21" width="59.28125" y="24" x="54.113128662109375" class="er attributeBoxOdd"/><text style="dominant-baseline: middle; font-size: 10.2px;" transform="translate(59.113128662109375,34.5)" y="0" x="0" id="text-entity-Question-489e4f99-55a1-57b9-ae56-53457bd575f3-attr-1-name" class="er entityLabel">id</text><rect height="21" width="13.734375" y="24" x="113.39437866210938" class="er attributeBoxOdd"/><text style="dominant-baseline: middle; font-size: 10.2px;" transform="translate(118.39437866210938,34.5)" y="0" x="0" id="text-entity-Question-489e4f99-55a1-57b9-ae56-53457bd575f3-attr-1-comment" class="er entityLabel">🗝️</text><rect height="21" width="54.113128662109375" y="45" x="0" class="er attributeBoxEven"/><text style="dominant-baseline: middle; font-size: 10.2px;" transform="translate(5,55.5)" y="0" x="0" id="text-entity-Question-489e4f99-55a1-57b9-ae56-53457bd575f3-attr-2-type" class="er entityLabel">DateTime</text><rect height="21" width="59.28125" y="45" x="54.113128662109375" class="er attributeBoxEven"/><text style="dominant-baseline: middle; font-size: 10.2px;" transform="translate(59.113128662109375,55.5)" y="0" x="0" id="text-entity-Question-489e4f99-55a1-57b9-ae56-53457bd575f3-attr-2-name" class="er entityLabel">createdAt</text><rect height="21" width="13.734375" y="45" x="113.39437866210938" class="er attributeBoxEven"/><text style="dominant-baseline: middle; font-size: 10.2px;" transform="translate(118.39437866210938,55.5)" y="0" x="0" id="text-entity-Question-489e4f99-55a1-57b9-ae56-53457bd575f3-attr-2-comment" class="er entityLabel"/><rect height="21" width="54.113128662109375" y="66" x="0" class="er attributeBoxOdd"/><text style="dominant-baseline: middle; font-size: 10.2px;" transform="translate(5,76.5)" y="0" x="0" id="text-entity-Question-489e4f99-55a1-57b9-ae56-53457bd575f3-attr-3-type" class="er entityLabel">String</text><rect height="21" width="59.28125" y="66" x="54.113128662109375" class="er attributeBoxOdd"/><text style="dominant-baseline: middle; font-size: 10.2px;" transform="translate(59.113128662109375,76.5)" y="0" x="0" id="text-entity-Question-489e4f99-55a1-57b9-ae56-53457bd575f3-attr-3-name" class="er entityLabel">title</text><rect height="21" width="13.734375" y="66" x="113.39437866210938" class="er attributeBoxOdd"/><text style="dominant-baseline: middle; font-size: 10.2px;" transform="translate(118.39437866210938,76.5)" y="0" x="0" id="text-entity-Question-489e4f99-55a1-57b9-ae56-53457bd575f3-attr-3-comment" class="er entityLabel"/><rect height="21" width="54.113128662109375" y="87" x="0" class="er attributeBoxEven"/><text style="dominant-baseline: middle; font-size: 10.2px;" transform="translate(5,97.5)" y="0" x="0" id="text-entity-Question-489e4f99-55a1-57b9-ae56-53457bd575f3-attr-4-type" class="er entityLabel">String</text><rect height="21" width="59.28125" y="87" x="54.113128662109375" class="er attributeBoxEven"/><text style="dominant-baseline: middle; font-size: 10.2px;" transform="translate(59.113128662109375,97.5)" y="0" x="0" id="text-entity-Question-489e4f99-55a1-57b9-ae56-53457bd575f3-attr-4-name" class="er entityLabel">description</text><rect height="21" width="13.734375" y="87" x="113.39437866210938" class="er attributeBoxEven"/><text style="dominant-baseline: middle; font-size: 10.2px;" transform="translate(118.39437866210938,97.5)" y="0" x="0" id="text-entity-Question-489e4f99-55a1-57b9-ae56-53457bd575f3-attr-4-comment" class="er entityLabel"/><rect height="21" width="54.113128662109375" y="108" x="0" class="er attributeBoxOdd"/><text style="dominant-baseline: middle; font-size: 10.2px;" transform="translate(5,118.5)" y="0" x="0" id="text-entity-Question-489e4f99-55a1-57b9-ae56-53457bd575f3-attr-5-type" class="er entityLabel">String</text><rect height="21" width="59.28125" y="108" x="54.113128662109375" class="er attributeBoxOdd"/><text style="dominant-baseline: middle; font-size: 10.2px;" transform="translate(59.113128662109375,118.5)" y="0" x="0" id="text-entity-Question-489e4f99-55a1-57b9-ae56-53457bd575f3-attr-5-name" class="er entityLabel">question</text><rect height="21" width="13.734375" y="108" x="113.39437866210938" class="er attributeBoxOdd"/><text style="dominant-baseline: middle; font-size: 10.2px;" transform="translate(118.39437866210938,118.5)" y="0" x="0" id="text-entity-Question-489e4f99-55a1-57b9-ae56-53457bd575f3-attr-5-comment" class="er entityLabel"/><rect height="21" width="54.113128662109375" y="129" x="0" class="er attributeBoxEven"/><text style="dominant-baseline: middle; font-size: 10.2px;" transform="translate(5,139.5)" y="0" x="0" id="text-entity-Question-489e4f99-55a1-57b9-ae56-53457bd575f3-attr-6-type" class="er entityLabel">String</text><rect height="21" width="59.28125" y="129" x="54.113128662109375" class="er attributeBoxEven"/><text style="dominant-baseline: middle; font-size: 10.2px;" transform="translate(59.113128662109375,139.5)" y="0" x="0" id="text-entity-Question-489e4f99-55a1-57b9-ae56-53457bd575f3-attr-6-name" class="er entityLabel">option1</text><rect height="21" width="13.734375" y="129" x="113.39437866210938" class="er attributeBoxEven"/><text style="dominant-baseline: middle; font-size: 10.2px;" transform="translate(118.39437866210938,139.5)" y="0" x="0" id="text-entity-Question-489e4f99-55a1-57b9-ae56-53457bd575f3-attr-6-comment" class="er entityLabel"/><rect height="21" width="54.113128662109375" y="150" x="0" class="er attributeBoxOdd"/><text style="dominant-baseline: middle; font-size: 10.2px;" transform="translate(5,160.5)" y="0" x="0" id="text-entity-Question-489e4f99-55a1-57b9-ae56-53457bd575f3-attr-7-type" class="er entityLabel">String</text><rect height="21" width="59.28125" y="150" x="54.113128662109375" class="er attributeBoxOdd"/><text style="dominant-baseline: middle; font-size: 10.2px;" transform="translate(59.113128662109375,160.5)" y="0" x="0" id="text-entity-Question-489e4f99-55a1-57b9-ae56-53457bd575f3-attr-7-name" class="er entityLabel">option2</text><rect height="21" width="13.734375" y="150" x="113.39437866210938" class="er attributeBoxOdd"/><text style="dominant-baseline: middle; font-size: 10.2px;" transform="translate(118.39437866210938,160.5)" y="0" x="0" id="text-entity-Question-489e4f99-55a1-57b9-ae56-53457bd575f3-attr-7-comment" class="er entityLabel"/><rect height="21" width="54.113128662109375" y="171" x="0" class="er attributeBoxEven"/><text style="dominant-baseline: middle; font-size: 10.2px;" transform="translate(5,181.5)" y="0" x="0" id="text-entity-Question-489e4f99-55a1-57b9-ae56-53457bd575f3-attr-8-type" class="er entityLabel">String</text><rect height="21" width="59.28125" y="171" x="54.113128662109375" class="er attributeBoxEven"/><text style="dominant-baseline: middle; font-size: 10.2px;" transform="translate(59.113128662109375,181.5)" y="0" x="0" id="text-entity-Question-489e4f99-55a1-57b9-ae56-53457bd575f3-attr-8-name" class="er entityLabel">option3</text><rect height="21" width="13.734375" y="171" x="113.39437866210938" class="er attributeBoxEven"/><text style="dominant-baseline: middle; font-size: 10.2px;" transform="translate(118.39437866210938,181.5)" y="0" x="0" id="text-entity-Question-489e4f99-55a1-57b9-ae56-53457bd575f3-attr-8-comment" class="er entityLabel"/><rect height="21" width="54.113128662109375" y="192" x="0" class="er attributeBoxOdd"/><text style="dominant-baseline: middle; font-size: 10.2px;" transform="translate(5,202.5)" y="0" x="0" id="text-entity-Question-489e4f99-55a1-57b9-ae56-53457bd575f3-attr-9-type" class="er entityLabel">String</text><rect height="21" width="59.28125" y="192" x="54.113128662109375" class="er attributeBoxOdd"/><text style="dominant-baseline: middle; font-size: 10.2px;" transform="translate(59.113128662109375,202.5)" y="0" x="0" id="text-entity-Question-489e4f99-55a1-57b9-ae56-53457bd575f3-attr-9-name" class="er entityLabel">option4</text><rect height="21" width="13.734375" y="192" x="113.39437866210938" class="er attributeBoxOdd"/><text style="dominant-baseline: middle; font-size: 10.2px;" transform="translate(118.39437866210938,202.5)" y="0" x="0" id="text-entity-Question-489e4f99-55a1-57b9-ae56-53457bd575f3-attr-9-comment" class="er entityLabel"/><rect height="21" width="54.113128662109375" y="213" x="0" class="er attributeBoxEven"/><text style="dominant-baseline: middle; font-size: 10.2px;" transform="translate(5,223.5)" y="0" x="0" id="text-entity-Question-489e4f99-55a1-57b9-ae56-53457bd575f3-attr-10-type" class="er entityLabel">String</text><rect height="21" width="59.28125" y="213" x="54.113128662109375" class="er attributeBoxEven"/><text style="dominant-baseline: middle; font-size: 10.2px;" transform="translate(59.113128662109375,223.5)" y="0" x="0" id="text-entity-Question-489e4f99-55a1-57b9-ae56-53457bd575f3-attr-10-name" class="er entityLabel">answer</text><rect height="21" width="13.734375" y="213" x="113.39437866210938" class="er attributeBoxEven"/><text style="dominant-baseline: middle; font-size: 10.2px;" transform="translate(118.39437866210938,223.5)" y="0" x="0" id="text-entity-Question-489e4f99-55a1-57b9-ae56-53457bd575f3-attr-10-comment" class="er entityLabel"/></g><g transform="translate(29.620376586914062,270 )" id="entity-Attempt-545c8ea0-1c9d-5e8c-8c3e-4f09d1631933"><rect height="66" width="107.88800048828125" y="0" x="0" class="er entityBox"/><text style="dominant-baseline: middle; text-anchor: middle; font-size: 12px;" transform="translate(53.944000244140625,12)" y="0" x="0" id="text-entity-Attempt-545c8ea0-1c9d-5e8c-8c3e-4f09d1631933" class="er entityLabel">Attempt</text><rect height="21" width="54.113128662109375" y="24" x="0" class="er attributeBoxOdd"/><text style="dominant-baseline: middle; font-size: 10.2px;" transform="translate(5,34.5)" y="0" x="0" id="text-entity-Attempt-545c8ea0-1c9d-5e8c-8c3e-4f09d1631933-attr-1-type" class="er entityLabel">DateTime</text><rect height="21" width="53.774871826171875" y="24" x="54.113128662109375" class="er attributeBoxOdd"/><text style="dominant-baseline: middle; font-size: 10.2px;" transform="translate(59.113128662109375,34.5)" y="0" x="0" id="text-entity-Attempt-545c8ea0-1c9d-5e8c-8c3e-4f09d1631933-attr-1-name" class="er entityLabel">createdAt</text><rect height="21" width="54.113128662109375" y="45" x="0" class="er attributeBoxEven"/><text style="dominant-baseline: middle; font-size: 10.2px;" transform="translate(5,55.5)" y="0" x="0" id="text-entity-Attempt-545c8ea0-1c9d-5e8c-8c3e-4f09d1631933-attr-2-type" class="er entityLabel">String</text><rect height="21" width="53.774871826171875" y="45" x="54.113128662109375" class="er attributeBoxEven"/><text style="dominant-baseline: middle; font-size: 10.2px;" transform="translate(59.113128662109375,55.5)" y="0" x="0" id="text-entity-Attempt-545c8ea0-1c9d-5e8c-8c3e-4f09d1631933-attr-2-name" class="er entityLabel">answer</text></g><rect height="14" width="46.03125" y="214.54507446289062" x="19.08212661743164" class="er relationshipLabelBox"/><text style="text-anchor: middle; dominant-baseline: middle; font-size: 12px;" y="221.54507446289062" x="42.09775161743164" id="rel1" class="er relationshipLabel">attempts</text><rect height="14" width="51.375" y="713.5614624023438" x="102.01783752441406" class="er relationshipLabelBox"/><text style="text-anchor: middle; dominant-baseline: middle; font-size: 12px;" y="720.5614624023438" x="127.70533752441406" id="rel2" class="er relationshipLabel">questions</text><rect height="14" width="60.703125" y="376.9162902832031" x="95.3433837890625" class="er relationshipLabelBox"/><text style="text-anchor: middle; dominant-baseline: middle; font-size: 12px;" y="383.9162902832031" x="125.6949462890625" id="rel3" class="er relationshipLabel">attemtedBy</text><rect height="14" width="40.03125" y="713.5614624023438" x="19.40778350830078" class="er relationshipLabelBox"/><text style="text-anchor: middle; dominant-baseline: middle; font-size: 12px;" y="720.5614624023438" x="39.42340850830078" id="rel4" class="er relationshipLabel">teacher</text><rect height="14" width="40.029296875" y="214.54507446289062" x="105.01634216308594" class="er relationshipLabelBox"/><text style="text-anchor: middle; dominant-baseline: middle; font-size: 12px;" y="221.54507446289062" x="125.03099060058594" id="rel5" class="er relationshipLabel">student</text><rect height="14" width="45.375" y="376.916259765625" x="18.74631118774414" class="er relationshipLabelBox"/><text style="text-anchor: middle; dominant-baseline: middle; font-size: 12px;" y="383.916259765625" x="41.43381118774414" id="rel6" class="er relationshipLabel">question</text></svg>